{"title":"Sarah Vandella - Double Take - MonsterCurves","uid":10663629,"size":440005332,"categoryP":"porn","categoryS":"movie_clips","magnet":"?xt=urn:btih:123426b1f2baa4350e5ec021ed9b4053e1fa5ac8&amp;dn=Sarah+Vandella+-+Double+Take+-+MonsterCurves&amp;tr=udp%3A%2F%2Ftracker.openbittorrent.com%3A80&amp;tr=udp%3A%2F%2Fopen.demonii.com%3A1337&amp;tr=udp%3A%2F%2Ftracker.coppersurfer.tk%3A6969&amp;tr=udp%3A%2F%2Fexodus.desync.com%3A6969","seeders":2,"leechers":12,"uploader":"athklym","files":-1,"time":1406764939,"description":" &lt;a href=&quot;http://bayimg.com/kaPjDaaFI&quot; rel=&quot;nofollow&quot; target=&quot;_NEW&quot;&gt;http://bayimg.com/kaPjDaaFI&lt;/a&gt;\nSarah_Vandella_Double_Take_MonsterCurves.mp4\nFormat : MPEG-4\nFormat profile : Base Media / Version 2\nCodec ID : mp42\nFile size : 420 MiB\nDuration : 38mn 5s\nOverall bit rate mode : Variable\nOverall bit rate : 1 540 Kbps\nEncoded date : UTC 2012-09-07 19:41:32\nTagged date : UTC 2012-09-07 19:41:32\nWriting library : Apple QuickTime\n\nVideo\nID : 1\nFormat : AVC\nFormat/Info : Advanced Video Codec\nFormat profile : &lt;a class=&quot;__cf_email__&quot; href=&quot;/cdn-cgi/l/email-protection&quot; data-cfemail=&quot;80cde1e9eec0ccb3aeb0&quot;&gt;[email&amp;#160;protected]&lt;/a&gt;&lt;script cf-hash='f9e31' type=&quot;text/javascript&quot;&gt;\n/* &lt;![CDATA[ */!function(){try{var t=&quot;currentScript&quot;in document?document.currentScript:function(){for(var t=document.getElementsByTagName(&quot;script&quot;),e=t.length;e--;)if(t[e].getAttribute(&quot;cf-hash&quot;))return t[e]}();if(t&amp;&amp;t.previousSibling){var e,r,n,i,c=t.previousSibling,a=c.getAttribute(&quot;data-cfemail&quot;);if(a){for(e=&quot;&quot;,r=parseInt(a.substr(0,2),16),n=2;a.length-n;n+=2)i=parseInt(a.substr(n,2),16)^r,e+=String.fromCharCode(i);e=document.createTextNode(e),c.parentNode.replaceChild(e,c)}}}catch(u){}}();/* ]]&gt; */&lt;/script&gt;\nFormat settings, CABAC : No\nFormat settings, ReFrames : 6 frames\nCodec ID : avc1\nCodec ID/Info : Advanced Video Coding\nDuration : 38mn 5s\nSource duration : 38mn 5s\nBit rate mode : Variable\nBit rate : 1 438 Kbps\nMaximum bit rate : 1 500 Kbps\nWidth : 768 pixels\nHeight : 432 pixels\nDisplay aspect ratio : 16:9\nFrame rate mode : Constant\nFrame rate : 29.970 fps\nStandard : Component\nColor space : YUV\nChroma subsampling : 4:2:0\nBit depth : 8 bits\nScan type : Progressive\nBits/(Pixel*Frame) : 0.145\nStream size : 392 MiB (93%)\nSource stream size : 410 MiB (98%)\nEncoded date : UTC 2012-09-07 19:41:32\nTagged date : UTC 2012-09-06 20:08:01\n\nAudio\nID : 2\nFormat : AAC\nFormat/Info : Advanced Audio Codec\nFormat profile : LC\nCodec ID : 40\nDuration : 38mn 5s\nBit rate mode : Variable\nBit rate : 32.0 Kbps\nMaximum bit rate : 35.5 Kbps\nChannel(s) : 1 channel\nChannel positions : Front: C\nSampling rate : 32.0 KHz\nCompression mode : Lossy\nStream size : 8.72 MiB (2%)\nEncoded date : UTC 2012-09-07 19:41:32\nTagged date : UTC 2012-09-06 20:08:01","torrent":{"xt":"urn:btih:123426b1f2baa4350e5ec021ed9b4053e1fa5ac8","amp;dn":"Sarah+Vandella+-+Double+Take+-+MonsterCurves","amp;tr":["udp%3A%2F%2Ftracker.openbittorrent.com%3A80","udp%3A%2F%2Fopen.demonii.com%3A1337","udp%3A%2F%2Ftracker.coppersurfer.tk%3A6969","udp%3A%2F%2Fexodus.desync.com%3A6969"],"infoHash":"123426b1f2baa4350e5ec021ed9b4053e1fa5ac8","infoHashBuffer":{"type":"Buffer","data":[18,52,38,177,242,186,164,53,14,94,192,33,237,155,64,83,225,250,90,200]},"announce":[],"urlList":[]}}